<svg width="721" height="117" viewBox="0 0 721 117" fill="none" xmlns="http://www.w3.org/2000/svg">
<path d="M229 83C226.261 84.7721 225.412 88.2995 226.167 91.4444C227.42 96.6686 235.775 94.8571 239.222 93.5556C245.07 91.3478 247.738 87.6983 250.944 82.8889C252.924 79.9189 250.067 89.9867 250 93.5556C249.868 100.562 260.698 85.9917 265 86.4444C270.415 87.0145 261.387 98.8451 272.5 88.5556C281.694 80.0429 277.378 90.2666 281.5 94.3889C283.164 96.0526 286.981 89.9527 288.222 89C291.414 86.5503 291.206 90.8764 292.5 92.8889C295.773 97.9797 301.22 83.1596 303.556 89.5C307.125 99.1892 319.6 82.4544 312.778 76.4444C305.658 70.1727 298.133 87.8327 307 88C308.818 88.0343 315.579 85.542 315.944 86.9444C318.026 94.9247 321.993 99.3697 330.667 100.778C343.443 102.852 357.84 96.7965 368.056 89.5C369.773 88.2736 382.186 78.1069 374.111 76.4444C365.829 74.7393 363.795 85.026 367.5 90.3889C378.935 106.94 411.254 96.9849 425.5 91.8333C438.901 86.9873 452.206 80.7488 463.778 72.3333C473.221 65.4657 487.418 53.2383 482.889 39.5556C478.928 27.5917 465.205 20.0021 454.611 15.6111C419.569 1.08723 378.251 1.54851 341.111 2.61111C292.813 3.99294 244.598 9.55043 197.111 18.4444C141.258 28.9055 83.7082 43.0294 32.2222 67.7778C26.7919 70.388 -2.74374 82.798 2.55556 95.5556C6.03399 103.93 19.7974 106.453 26.1111 107.833C48.4998 112.727 71.6095 113.514 94.3889 114.222C250.097 119.065 406.572 105.03 561.556 91.8889C604.714 88.2294 647.878 84.5221 691 80.4444C699.745 79.6175 725.813 76.0025 717.222 77.8333C671.198 87.6417 625.639 100.59 580 112" stroke="white" stroke-width="3" stroke-linecap="round"/>
</svg>
